<?xml version="1.0" ?><svg data-name="Layer 1" id="Layer_1" viewBox="0 0 128 128" xmlns="http://www.w3.org/2000/svg"><title/><path d="M98,0H30A30,30,0,0,0,0,30V98a30,30,0,0,0,30,30H98a30,30,0,0,0,30-30V30A30,30,0,0,0,98,0ZM64,101.5A37.5,37.5,0,1,1,101.5,64,37.51,37.51,0,0,1,64,101.5Z"/><path d="M64,30.7A33.3,33.3,0,1,0,97.3,64,33.35,33.35,0,0,0,64,30.7ZM66.1,84A2.18,2.18,0,0,1,64,86.1,2.11,2.11,0,0,1,61.9,84V57.3A2.11,2.11,0,0,1,64,55.2a2.05,2.05,0,0,1,2.1,2.1ZM64,50.9a3,3,0,1,1,3-3A3,3,0,0,1,64,50.9Z"/></svg>