<?xml version="1.0" ?><svg data-name="Layer 1" fill="#eea450" id="Layer_1" viewBox="0 0 128 128" xmlns="http://www.w3.org/2000/svg"><title/><path d="M72.7,76.7c4.4,0,7.1-4.2,7.1-11.5V62.9c0-7.4-2.7-11.6-7.1-11.6s-7.1,4.2-7.1,11.6v2.3C65.6,72.5,68.3,76.7,72.7,76.7Z"/><path d="M98,0H30A30,30,0,0,0,0,30V98a30,30,0,0,0,30,30H98a30,30,0,0,0,30-30V30A30,30,0,0,0,98,0ZM45.1,53.5A81.14,81.14,0,0,1,52.5,49h3V79H52.3V52.7c-1.5.8-5.3,3.2-7.2,4.4Zm18.9,48A37.59,37.59,0,0,1,35,40.1a2.13,2.13,0,0,1,3.3,2.7,33.33,33.33,0,1,0,27.8-12V43.7A2.18,2.18,0,0,1,64,45.8a2.11,2.11,0,0,1-2.1-2.1V28.6A2.11,2.11,0,0,1,64,26.5a37.5,37.5,0,1,1,0,75ZM62.3,65.2V62.8c0-8.9,3.7-14.5,10.3-14.5s10.3,5.6,10.3,14.5v2.4c0,8.9-3.7,14.4-10.3,14.4S62.3,74.1,62.3,65.2Z"/></svg>