<?xml version="1.0" ?><svg data-name="Layer 1" id="Layer_1" viewBox="0 0 128 128" xmlns="http://www.w3.org/2000/svg"><title/><path d="M98,0H30A30,30,0,0,0,0,30V98a30,30,0,0,0,30,30H98a30,30,0,0,0,30-30V30A30,30,0,0,0,98,0ZM80.6,44.15l6.7-6.7a2.26,2.26,0,0,1,3.2,3.2l-6.7,6.7a2.18,2.18,0,0,1-3.2,0A2.23,2.23,0,0,1,80.6,44.15ZM61.7,28.75a2.3,2.3,0,1,1,4.6,0v9.4a2.3,2.3,0,0,1-4.6.1Zm-24.2,8.7a2.23,2.23,0,0,1,3.2,0l6.7,6.7a2.23,2.23,0,0,1,0,3.2,2,2,0,0,1-1.6.7,2.36,2.36,0,0,1-1.6-.7l-6.7-6.7A2.23,2.23,0,0,1,37.5,37.45Zm-8.7,28.8a2.3,2.3,0,0,1,0-4.6h9.4a2.3,2.3,0,0,1,.1,4.6Zm18.6,17.5-6.7,6.7a2,2,0,0,1-1.6.7,2.36,2.36,0,0,1-1.6-.7,2.23,2.23,0,0,1,0-3.2l6.7-6.7a2.26,2.26,0,1,1,3.2,3.2Zm18.9,15.5a2.3,2.3,0,1,1-4.6,0v-9.5a2.3,2.3,0,0,1,4.6,0ZM64,83.65A19.7,19.7,0,1,1,83.7,64,19.67,19.67,0,0,1,64,83.65Zm26.5,6.8a2,2,0,0,1-1.6.7,2.36,2.36,0,0,1-1.6-.7l-6.7-6.7a2.26,2.26,0,1,1,3.2-3.2l6.7,6.7A2.23,2.23,0,0,1,90.5,90.45Zm8.7-24.2H89.7a2.3,2.3,0,0,1,0-4.6h9.5a2.3,2.3,0,0,1,0,4.6Z"/><circle cx="64" cy="63.95" r="15.2"/></svg>